<svg xmlns="http://www.w3.org/2000/svg" xmlns:xlink="http://www.w3.org/1999/xlink" version="1.1" width="256" height="256" viewBox="0 0 256 256" xml:space="preserve">
<g style="stroke: none; stroke-width: 0; stroke-dasharray: none; stroke-linecap: butt; stroke-linejoin: miter; stroke-miterlimit: 10; fill: none; fill-rule: nonzero; opacity: 1;" transform="translate(1.4222222222222314 1.4222222222222456) scale(2.84 2.84)">
	<path d="M 88.921 70.832 C 65.445 59.386 58.165 42.96 38.486 30.257 c -5.663 -1.416 -9.653 -3.337 -12.187 -5.698 c 0.227 6.706 3.271 12.965 12.5 18.241 C 26.364 45.648 13.326 44.637 0 41.788 c 0.093 6.46 7.473 13.831 23.934 17.461 c 6.257 1.226 11.196 4.319 15.59 7.203 c -9.956 -2.716 -18.233 -2.048 -24.581 2.504 c 5.985 1.199 10.985 2.307 15.625 5.281 C 44.104 83.366 77.657 96.693 88.921 70.832 z" style="stroke: none; stroke-width: 1; stroke-dasharray: none; stroke-linecap: butt; stroke-linejoin: miter; stroke-miterlimit: 10; fill: rgb(249,168,61); fill-rule: nonzero; opacity: 1;" transform=" matrix(1 0 0 1 0 0) " stroke-linecap="round"/>
	<path d="M 26.123 51.528 c 5.516 0.577 11.21 0.659 17.113 -1.46 c 13.689 -5.099 26.939 -1.726 26.939 -1.726 l 14.352 19.285 c -6.167 5.789 -12.444 11.259 -21.071 9.952 c -9.784 -1.461 -19.72 -10.749 -23.839 -16.805 c 2.642 0.591 5.479 0.638 8.547 0.036 C 38.611 58.33 30.77 55.374 26.123 51.528 z" style="stroke: none; stroke-width: 1; stroke-dasharray: none; stroke-linecap: butt; stroke-linejoin: miter; stroke-miterlimit: 10; fill: rgb(247,211,62); fill-rule: nonzero; opacity: 1;" transform=" matrix(1 0 0 1 0 0) " stroke-linecap="round"/>
	<path d="M 87.746 68.571 L 76.805 53.352 c -6.133 -8.978 -11.801 -19.723 -17.318 -31.04 c -0.482 -0.989 -1.602 -1.492 -2.661 -1.196 c -7.524 2.098 -14.305 0.244 -20.177 -6.444 c -0.149 -0.17 -0.281 -0.369 -0.378 -0.573 c -1.56 -3.252 -2.288 -6.15 -2.457 -8.808 c -0.084 -1.329 -1.243 -2.382 -2.558 -2.168 c -2.103 0.342 -4.615 2.115 -7.71 5.921 c -0.044 0.054 -0.087 0.112 -0.126 0.169 l -9.944 14.444 c -0.682 0.99 -0.479 2.339 0.463 3.085 l 3.124 2.473 l -1.329 2.685 c -0.304 0.614 -0.138 1.357 0.399 1.783 l 1.564 1.241 c 0.508 0.403 1.222 0.421 1.75 0.043 l 2.562 -1.836 l 3.919 3.103 l -1.268 2.562 c -0.304 0.614 -0.138 1.357 0.399 1.783 l 1.564 1.241 c 0.508 0.403 1.222 0.421 1.75 0.043 l 2.449 -1.755 l 18.221 14.427 c 2.415 1.743 4.814 3.364 7.204 4.91 c -0.008 0.024 -0.021 0.044 -0.028 0.069 l -0.743 2.633 c -0.162 0.575 0.099 1.185 0.627 1.464 l 1.539 0.814 c 0.5 0.264 1.115 0.165 1.506 -0.243 l 1.757 -1.832 c 1.303 0.779 2.601 1.526 3.897 2.248 l -0.574 2.032 c -0.162 0.575 0.099 1.185 0.627 1.464 l 1.539 0.814 c 0.5 0.264 1.115 0.165 1.506 -0.243 l 1.529 -1.594 c 1.462 0.744 2.92 1.456 4.373 2.129 l -0.612 2.167 c -0.162 0.575 0.099 1.185 0.627 1.464 l 1.539 0.814 c 0.5 0.264 1.115 0.165 1.506 -0.243 l 1.926 -2.008 c 0.005 -0.005 0.007 -0.011 0.012 -0.016 c 1.16 0.476 2.319 0.941 3.474 1.373 C 87.484 74.975 90.997 72.632 87.746 68.571 z" style="stroke: none; stroke-width: 1; stroke-dasharray: none; stroke-linecap: butt; stroke-linejoin: miter; stroke-miterlimit: 10; fill: rgb(247,62,66); fill-rule: nonzero; opacity: 1;" transform=" matrix(1 0 0 1 0 0) " stroke-linecap="round"/>
	<path d="M 27.711 31.241 l -12.667 -9.863 c 0 0 8.458 -12.281 8.502 -12.335 C 29.767 15.644 32.139 22.88 27.711 31.241 z" style="stroke: none; stroke-width: 1; stroke-dasharray: none; stroke-linecap: butt; stroke-linejoin: miter; stroke-miterlimit: 10; fill: rgb(229,57,61); fill-rule: nonzero; opacity: 1;" transform=" matrix(1 0 0 1 0 0) " stroke-linecap="round"/>
	<path d="M 88.044 68.985 c -1.012 -0.028 -2.211 -0.298 -3.516 -0.856 c -10.825 -4.046 -21.892 -10.031 -33.233 -18.215 L 16.19 22.119 c -0.414 -0.328 -0.676 -0.775 -0.792 -1.255 l -1.921 2.791 c -0.682 0.99 -0.479 2.339 0.463 3.085 l 3.124 2.473 l -1.329 2.685 c -0.304 0.614 -0.138 1.357 0.399 1.783 l 1.564 1.241 c 0.508 0.403 1.222 0.421 1.75 0.043 l 2.562 -1.836 l 3.919 3.103 l -1.268 2.562 c -0.304 0.614 -0.138 1.357 0.399 1.783 l 1.564 1.241 c 0.508 0.403 1.222 0.421 1.75 0.043 l 2.449 -1.755 l 18.221 14.427 c 2.415 1.743 4.814 3.364 7.204 4.91 c -0.008 0.024 -0.021 0.044 -0.028 0.069 l -0.743 2.633 c -0.162 0.575 0.099 1.185 0.627 1.464 l 1.539 0.814 c 0.5 0.264 1.115 0.165 1.506 -0.243 l 1.757 -1.832 c 1.303 0.779 2.601 1.526 3.897 2.248 l -0.574 2.032 c -0.162 0.575 0.099 1.185 0.627 1.464 l 1.539 0.814 c 0.5 0.264 1.115 0.165 1.506 -0.243 l 1.529 -1.594 c 1.462 0.744 2.92 1.456 4.373 2.129 l -0.612 2.167 c -0.162 0.575 0.099 1.185 0.627 1.464 l 1.539 0.814 c 0.5 0.264 1.115 0.165 1.506 -0.243 l 1.926 -2.008 c 0.005 -0.005 0.007 -0.011 0.012 -0.016 c 1.16 0.476 2.319 0.941 3.474 1.373 C 87.302 74.897 90.73 72.785 88.044 68.985 z" style="stroke: none; stroke-width: 1; stroke-dasharray: none; stroke-linecap: butt; stroke-linejoin: miter; stroke-miterlimit: 10; fill: rgb(87,89,93); fill-rule: nonzero; opacity: 1;" transform=" matrix(1 0 0 1 0 0) " stroke-linecap="round"/>
	<path d="M 35.041 37.044 L 16.19 22.119 c -0.414 -0.328 -0.676 -0.775 -0.792 -1.255 l -1.921 2.791 c -0.682 0.99 -0.479 2.339 0.463 3.085 l 3.124 2.473 l -1.329 2.685 c -0.304 0.614 -0.138 1.357 0.399 1.783 l 1.564 1.241 c 0.508 0.403 1.222 0.421 1.75 0.043 l 2.562 -1.836 l 3.919 3.103 l -1.268 2.562 c -0.304 0.614 -0.138 1.357 0.399 1.783 l 1.564 1.241 c 0.508 0.403 1.222 0.421 1.75 0.043 l 2.449 -1.755 l 7.09 5.614 C 36.241 42.443 35.202 39.436 35.041 37.044 z" style="stroke: none; stroke-width: 1; stroke-dasharray: none; stroke-linecap: butt; stroke-linejoin: miter; stroke-miterlimit: 10; fill: rgb(63,64,66); fill-rule: nonzero; opacity: 1;" transform=" matrix(1 0 0 1 0 0) " stroke-linecap="round"/>
	<path d="M 76.82 53.382 c -6.133 -8.978 -11.801 -19.723 -17.318 -31.04 c -0.482 -0.989 -1.602 -1.492 -2.661 -1.196 c -1.886 0.526 -3.725 0.804 -5.515 0.819 c 3.797 9.437 12.547 20.373 23.262 31.904 C 76.3 55.657 77.59 54.454 76.82 53.382 z" style="stroke: none; stroke-width: 1; stroke-dasharray: none; stroke-linecap: butt; stroke-linejoin: miter; stroke-miterlimit: 10; fill: rgb(229,57,61); fill-rule: nonzero; opacity: 1;" transform=" matrix(1 0 0 1 0 0) " stroke-linecap="round"/>
	<circle cx="45.136" cy="32.326" r="6.296" style="stroke: none; stroke-width: 1; stroke-dasharray: none; stroke-linecap: butt; stroke-linejoin: miter; stroke-miterlimit: 10; fill: rgb(229,57,61); fill-rule: nonzero; opacity: 1;" transform="  matrix(1 0 0 1 0 0) "/>
	<path d="M 59.544 30.53 c -0.499 0 -0.931 -0.372 -0.992 -0.88 c -0.065 -0.549 0.325 -1.047 0.873 -1.113 l 3.195 -0.386 c 0.552 -0.063 1.047 0.324 1.113 0.873 c 0.065 0.549 -0.325 1.047 -0.873 1.113 l -3.195 0.386 C 59.624 30.528 59.584 30.53 59.544 30.53 z" style="stroke: none; stroke-width: 1; stroke-dasharray: none; stroke-linecap: butt; stroke-linejoin: miter; stroke-miterlimit: 10; fill: rgb(63,64,66); fill-rule: nonzero; opacity: 1;" transform=" matrix(1 0 0 1 0 0) " stroke-linecap="round"/>
	<path d="M 61.782 34.964 c -0.499 0 -0.931 -0.372 -0.992 -0.88 c -0.065 -0.549 0.325 -1.047 0.873 -1.113 l 3.391 -0.409 c 0.551 -0.063 1.047 0.325 1.113 0.873 c 0.065 0.549 -0.325 1.047 -0.873 1.113 l -3.391 0.409 C 61.862 34.962 61.822 34.964 61.782 34.964 z" style="stroke: none; stroke-width: 1; stroke-dasharray: none; stroke-linecap: butt; stroke-linejoin: miter; stroke-miterlimit: 10; fill: rgb(63,64,66); fill-rule: nonzero; opacity: 1;" transform=" matrix(1 0 0 1 0 0) " stroke-linecap="round"/>
	<path d="M 64.547 39.049 c -0.499 0 -0.931 -0.373 -0.992 -0.881 c -0.065 -0.548 0.325 -1.046 0.874 -1.112 l 2.707 -0.326 c 0.539 -0.063 1.046 0.326 1.112 0.874 c 0.065 0.548 -0.325 1.046 -0.874 1.112 l -2.707 0.326 C 64.627 39.047 64.587 39.049 64.547 39.049 z" style="stroke: none; stroke-width: 1; stroke-dasharray: none; stroke-linecap: butt; stroke-linejoin: miter; stroke-miterlimit: 10; fill: rgb(63,64,66); fill-rule: nonzero; opacity: 1;" transform=" matrix(1 0 0 1 0 0) " stroke-linecap="round"/>
	<path d="M 67.676 43.375 c -0.499 0 -0.931 -0.373 -0.992 -0.881 c -0.065 -0.548 0.325 -1.046 0.874 -1.112 l 2.012 -0.242 c 0.538 -0.062 1.046 0.326 1.112 0.874 c 0.065 0.548 -0.325 1.046 -0.874 1.112 l -2.012 0.242 C 67.756 43.373 67.716 43.375 67.676 43.375 z" style="stroke: none; stroke-width: 1; stroke-dasharray: none; stroke-linecap: butt; stroke-linejoin: miter; stroke-miterlimit: 10; fill: rgb(63,64,66); fill-rule: nonzero; opacity: 1;" transform=" matrix(1 0 0 1 0 0) " stroke-linecap="round"/>
</g>
</svg>